<?xml version="1.0" standalone="no"?><!DOCTYPE svg PUBLIC "-//W3C//DTD SVG 1.1//EN" "http://www.w3.org/Graphics/SVG/1.1/DTD/svg11.dtd"><svg t="1728730010249" class="icon" viewBox="0 0 1024 1024" version="1.1" xmlns="http://www.w3.org/2000/svg" p-id="776" xmlns:xlink="http://www.w3.org/1999/xlink" width="256" height="256"><path d="M879.36 291.84l-12.8-7.04-137.28-74.88-3.84-1.92-357.44 206.432a32 32 0 0 0-16 27.712v116.832l-64-34.752v-119.488a32 32 0 0 1 16-27.712l48-27.584 307.52-177.6-132.16-72a32.64 32.64 0 0 0-30.72 0L352 178.56l-64 35.2L157.44 284.8l-12.8 7.04A32.192 32.192 0 0 0 128 320v384a32.192 32.192 0 0 0 16.64 28.16L480 915.2l16.64 8.96a32.64 32.64 0 0 0 30.72 0l16.64-8.96 335.36-183.04A32.192 32.192 0 0 0 896 704V320a32.192 32.192 0 0 0-16.64-28.16z m-24 407.488l-112.384 61.248v-44.064l112.384-61.28z" p-id="777" fill="#e0620d"></path></svg>