<?xml version="1.0" standalone="no"?><!DOCTYPE svg PUBLIC "-//W3C//DTD SVG 1.1//EN" "http://www.w3.org/Graphics/SVG/1.1/DTD/svg11.dtd"><svg t="1727842423757" class="icon" viewBox="0 0 1024 1024" version="1.1" xmlns="http://www.w3.org/2000/svg" p-id="23064" width="256" height="256" xmlns:xlink="http://www.w3.org/1999/xlink"><path d="M870.656 287.402667A42.666667 42.666667 0 0 1 896 326.4v373.845333a42.666667 42.666667 0 0 1-21.930667 37.290667l-341.333333 189.610667a42.666667 42.666667 0 0 1-41.472 0l-341.333333-189.610667A42.666667 42.666667 0 0 1 128 700.245333V326.4a42.666667 42.666667 0 0 1 25.344-38.997333l341.333333-151.68a42.666667 42.666667 0 0 1 34.645334 0l341.333333 151.68z" fill="#3e9efb" opacity=".3" p-id="23065" data-spm-anchor-id="a313x.search_index.0.i4.1b123a81cJpICE" class="selected"></path><path d="M638.592 180.224L324.266667 354.858667v195.797333l85.333333 42.666667V405.077333l326.613333-181.461333z" fill="#3e9efb" p-id="23066" data-spm-anchor-id="a313x.search_index.0.i3.1b123a81cJpICE" class="selected"></path></svg>